/* XPM */
static char * smilyequal_xpm[] = {
"50 50 4 1",
" 	c #BFBFBFBFBFBF",
".	c #000000000000",
"X	c #FFFFFCFC1717",
"o	c #151505051717",
"                                                  ",
"                                                  ",
"                                                  ",
"                        ...                       ",
"                   .............                  ",
"                 ........X........                ",
"               .....XXXXXXXXXXX.....              ",
"              ..XXXXXXXXXXXXXXXXXXX..             ",
"            ...XXXXXXXXXXXXXXXXXXXXX...           ",
"           ..XXXXXXXXXXXXXXXXXXXXXXXXX..          ",
"          ..XXXXXXXXXXXXXXXXXXXXXXXXXXX..         ",
"         .oXXXXXXXXXXXXXXXXXXXXXXXXXXXXX..        ",
"         .XXXXXXXXXXXXXXXXXXXXXXXXXXXXXXX.        ",
"        .XXXXXXXXXXXXXXXXXXXXXXXXXXXXXXXXX.       ",
"       ..XXXXXXXXXXXXXXXXXXXXXXXXXXXXXXXXX..      ",
"       .XXXXXXXoooXXXXXXXXXXXXXXXXoooXXXXXX.      ",
"      .XXXXXXXoooooXXXXXXXXXXXXXXoooooXXXXXX.     ",
"     ..XXXXXXoooooooXXXXXXXXXXXXoooooooXXXXX..    ",
"     ..XXXXXXXoooooXXXXXXXXXXXXXXoooooXXXXXX..    ",
"     ..XXXXXXXXoooXXXXXXXXXXXXXXXXoooXXXXXXX..    ",
"     ..XXXXXXXXXXXXXXXXXXooXXXXXXXXXXXXXXXXX..    ",
"    ..XXXXXXXXXXXXXXXXXXXooXXXXXXXXXXXXXXXXXX..   ",
"    ..XXXXXXXXXXXXXXXXXXXooXXXXXXXXXXXXXXXXXX..   ",
"    ..XXXXXXXXXXXXXXXXXXXooXXXXXXXXXXXXXXXXXX..   ",
"    ..XXXXXXXXXXXXXXXXXXXooXXXXXXXXXXXXXXXXXX..   ",
"    ..XXXXXXXXXXXXXXXXXXXooXXXXXXXXXXXXXXXXXX..   ",
"    ..XXXXXXXXXXXXXXXXXXXooXXXXXXXXXXXXXXXXXX..   ",
"    ..XXXXXXXXXXXXXXXXXXXooXXXXXXXXXXXXXXXXXX..   ",
"    ..XXXXXXXXXXXXXXXXXXXXXXXXXXXXXXXXXXXXXXX..   ",
"     ..XXXXXXXXXXXXXXXXXXXXXXXXXXXXXXXXXXXXX..    ",
"     ..XXXXXXXXXXXXXXXXXXXXXXXXXXXXXXXXXXXXX..    ",
"     ..XXXXXXXXXXXXXXXXXXXXXXXXXXXXXXXXXXXXX..    ",
"     ..XXXXXXXXXXoXXXXXXXXXXXXXXXXXoXXXXXXXX..    ",
"      .XXXXXXXXXXooooo.........oooooXXXXXXXX..    ",
"      ..XXXXXXXXXXoooo....o....ooooXXXXXXXX..     ",
"       ..XXXXXXXXXXXXXXXXXXXXXXXXXXXXXXXXX..      ",
"        .XXXXXXXXXXXXXXXXXXXXXXXXXXXXXXXXX.       ",
"        ..XXXXXXXXXXXXXXXXXXXXXXXXXXXXXXX..       ",
"         ..XXXXXXXXXXXXXXXXXXXXXXXXXXXXX..        ",
"          .XXXXXXXXXXXXXXXXXXXXXXXXXXXXX.         ",
"           ..XXXXXXXXXXXXXXXXXXXXXXXXX..          ",
"            ..XXXXXXXXXXXXXXXXXXXXXXX..           ",
"              ..XXXXXXXXXXXXXXXXXXX..             ",
"               ..X.XXXXXXXXXXXXXX...              ",
"                 ......XXXXX.......               ",
"                  ...............                 ",
"                       .....                      ",
"                                                  ",
"                                                  ",
"                                                  "};
